<?xml version="1.0" encoding="iso-8859-1"?>
<!-- Generator: Adobe Illustrator 19.0.0, SVG Export Plug-In . SVG Version: 6.00 Build 0)  -->
<svg version="1.1" id="Layer_1" xmlns="http://www.w3.org/2000/svg" xmlns:xlink="http://www.w3.org/1999/xlink" x="0px" y="0px"
	 viewBox="0 0 512 512" style="enable-background:new 0 0 512 512;" xml:space="preserve">
<path style="fill:#FF9E24;" d="M311.961,219.218h-11.584v46.335h11.584c38.324,0,69.502,31.179,69.502,69.502
	s-31.179,69.502-69.502,69.502h-11.584v46.335h11.584c63.873,0,115.837-51.963,115.837-115.837
	C427.798,271.183,375.834,219.218,311.961,219.218z"/>
<path style="fill:#FFB14D;" d="M84.202,169.696v295.97c0,19.113,15.638,34.751,34.751,34.751h158.256
	c19.113,0,34.751-15.638,34.751-34.751v-295.97H84.202z"/>
<g>
	<path style="fill:#11113F;" d="M439.382,335.055c0-66.355-50.986-121.016-115.837-126.889v-38.472
		c0-6.397-5.186-11.584-11.584-11.584H84.202c-6.398,0-11.584,5.187-11.584,11.584v295.971c0,25.549,20.786,46.335,46.335,46.335
		H277.21c25.549,0,46.335-20.786,46.335-46.335v-3.721C388.395,456.072,439.382,401.41,439.382,335.055z M311.961,439.309h-11.584
		c-6.398,0-11.584,5.187-11.584,11.584c0,6.397,5.186,11.584,11.584,11.584v3.189c0,12.775-10.393,23.167-23.167,23.167H118.953
		c-12.775,0-23.167-10.393-23.167-23.167V181.278h204.591v26.356c-6.398,0-11.584,5.187-11.584,11.584s5.186,11.584,11.584,11.584
		h11.584c57.485,0,104.253,46.768,104.253,104.253S369.446,439.309,311.961,439.309z"/>
	<path style="fill:#11113F;" d="M311.961,253.969h-11.584c-6.398,0-11.584,5.187-11.584,11.584c0,6.397,5.186,11.584,11.584,11.584
		v115.837c-6.398,0-11.584,5.187-11.584,11.584c0,6.397,5.186,11.584,11.584,11.584h11.584c44.711,0,81.086-36.375,81.086-81.086
		S356.672,253.969,311.961,253.969z M323.545,391.809V278.303c26.405,5.382,46.335,28.782,46.335,56.753
		C369.879,363.028,349.949,386.427,323.545,391.809z"/>
	<path style="fill:#11113F;" d="M155.222,134.944c0,6.397,5.186,11.584,11.584,11.584s11.584-5.187,11.584-11.584
		c0-13.317,2.341-19.55,5.052-26.766c3.062-8.151,6.532-17.391,6.532-34.914s-3.47-26.762-6.532-34.913
		c-2.711-7.217-5.052-13.45-5.052-26.766C178.389,5.187,173.203,0,166.805,0s-11.584,5.187-11.584,11.584
		c0,17.524,3.47,26.763,6.532,34.914c2.711,7.217,5.052,13.45,5.052,26.765c0,13.317-2.341,19.55-5.052,26.766
		C158.692,108.183,155.222,117.421,155.222,134.944z"/>
	<path style="fill:#11113F;" d="M206.19,134.944c0,6.397,5.186,11.584,11.584,11.584c6.398,0,11.584-5.187,11.584-11.584
		c0-13.317,2.341-19.55,5.052-26.766c3.062-8.151,6.532-17.391,6.532-34.914s-3.47-26.762-6.532-34.913
		c-2.711-7.217-5.052-13.45-5.052-26.766C229.357,5.187,224.171,0,217.774,0c-6.398,0-11.584,5.187-11.584,11.584
		c0,17.524,3.47,26.763,6.532,34.914c2.711,7.217,5.052,13.45,5.052,26.765c0,13.317-2.341,19.55-5.052,26.766
		C209.661,108.183,206.19,117.421,206.19,134.944z"/>
</g>
<g>
</g>
<g>
</g>
<g>
</g>
<g>
</g>
<g>
</g>
<g>
</g>
<g>
</g>
<g>
</g>
<g>
</g>
<g>
</g>
<g>
</g>
<g>
</g>
<g>
</g>
<g>
</g>
<g>
</g>
</svg>
